
<svg width="54" height="54" viewBox="0 0 54 54" fill="none" xmlns="http://www.w3.org/2000/svg">
  <rect width="54" height="54" rx="12" fill="#4CAF50"/>
  <path d="M27 15C20.925 15 16 19.925 16 26C16 32.075 20.925 37 27 37C33.075 37 38 32.075 38 26C38 19.925 33.075 15 27 15ZM30 28H28V30C28 30.55 27.55 31 27 31C26.45 31 26 30.55 26 30V28H24C23.45 28 23 27.55 23 27C23 26.45 23.45 26 24 26H26V24C26 23.45 26.45 23 27 23C27.55 23 28 23.45 28 24V26H30C30.55 26 31 26.45 31 27C31 27.55 30.55 28 30 28Z" fill="white"/>
</svg>
