
<svg width="54" height="54" viewBox="0 0 54 54" fill="none" xmlns="http://www.w3.org/2000/svg">
  <rect width="54" height="54" rx="12" fill="#1da47d"/>
  <path d="M32 19V26.5C32 28.985 29.985 31 27.5 31C25.015 31 23 28.985 23 26.5C23 24.015 25.015 22 27.5 22C28.163 22 28.784 22.164 29.334 22.449V19H32Z" fill="white"/>
  <path d="M18 26C18 32.075 22.925 37 29 37C35.075 37 40 32.075 40 26C40 19.925 35.075 15 29 15C22.925 15 18 19.925 18 26ZM29 17C33.97 17 38 21.03 38 26C38 30.97 33.97 35 29 35C24.03 35 20 30.97 20 26C20 21.03 24.03 17 29 17Z" fill="white"/>
</svg>
